<svg width="1370" height="347" fill="none" xmlns="http://www.w3.org/2000/svg"><circle opacity=".5" cx="1350" cy="20" r="19.5" stroke="#fff"/><path d="M1352.65 20.5a.258.258 0 00-.08-.18l-3.64-3.64a.281.281 0 00-.18-.078c-.06 0-.13.03-.18.078l-.39.39a.258.258 0 00-.08.18c0 .063.03.133.08.18l3.07 3.07-3.07 3.07a.258.258 0 00-.08.18c0 .07.03.133.08.18l.39.39c.05.047.12.078.18.078s.13-.03.18-.078l3.64-3.64a.258.258 0 00.08-.18z" fill="#fff"/><circle opacity=".5" cx="20" cy="20" r="19.5" stroke="#fff"/><path d="M21.898 17.25a.254.254 0 00-.078-.18l-.39-.39a.27.27 0 00-.18-.078.27.27 0 00-.18.078l-3.64 3.64a.27.27 0 00-.078.18.27.27 0 00.078.18l3.64 3.64a.27.27 0 00.18.078.27.27 0 00.18-.078l.39-.39a.27.27 0 00.078-.18.27.27 0 00-.078-.18l-3.07-3.07 3.07-3.07a.27.27 0 00.078-.18z" fill="#fff"/><circle cx="685" cy="342" r="4.5" stroke="#fff"/><circle cx="735" cy="342" r="4.5" stroke="#fff"/><circle cx="785" cy="342" r="4.5" stroke="#fff"/><circle cx="635" cy="342" r="5" fill="#fff"/><circle cx="585" cy="342" r="4.5" stroke="#fff"/></svg>